<svg width="auto" height="auto" viewBox="0 0 276.416 43.456" xmlns="http://www.w3.org/2000/svg"><g id="svgGroup" stroke-linecap="round" fill-rule="evenodd" font-size="9pt" stroke="#000" stroke-width="0.25mm" fill="none" style="stroke:#000;stroke-width:0.25mm;fill:white"><path d="M 147.264 16.512 L 146.944 16.512 Q 146.752 20.288 146.656 23.392 Q 146.56 26.496 146.528 29.44 Q 146.496 32.384 146.4 35.392 Q 146.304 38.4 146.112 42.048 Q 145.28 42.368 143.936 42.592 Q 142.592 42.816 141.248 42.816 Q 139.431 42.816 138.133 42.443 A 5.757 5.757 0 0 1 136.864 41.92 Q 135.296 41.024 135.296 38.656 Q 135.296 37.137 135.409 34.549 A 244.387 244.387 0 0 1 135.488 32.864 Q 135.68 29.056 135.968 24.448 Q 136.256 19.84 136.576 14.976 Q 136.896 10.112 137.152 6.016 Q 137.582 5.318 138.867 4.53 A 14.186 14.186 0 0 1 139.392 4.224 A 6.5 6.5 0 0 1 140.869 3.644 Q 142.281 3.265 144.249 3.264 A 14.829 14.829 0 0 1 144.256 3.264 Q 146.473 3.264 148.061 3.715 A 7.202 7.202 0 0 1 149.568 4.32 Q 151.488 5.376 152.384 7.744 Q 152.96 9.28 153.632 11.264 Q 154.304 13.248 154.976 15.36 Q 155.648 17.472 156.288 19.552 L 157.44 23.296 L 157.76 23.296 Q 159.296 17.92 160.832 12.896 Q 162.368 7.872 163.648 4.48 Q 164.608 3.968 166.112 3.616 A 13.064 13.064 0 0 1 167.889 3.334 A 17.248 17.248 0 0 1 169.472 3.264 A 17.502 17.502 0 0 1 171.492 3.374 Q 172.532 3.495 173.405 3.749 A 8.236 8.236 0 0 1 174.592 4.192 A 5.28 5.28 0 0 1 175.667 4.848 A 3.274 3.274 0 0 1 176.896 6.848 Q 177.152 8.128 177.44 10.784 A 419.141 419.141 0 0 1 177.727 13.515 Q 177.883 15.052 178.048 16.768 Q 178.368 20.096 178.688 23.808 Q 179.008 27.52 179.296 30.944 Q 179.584 34.368 179.776 37.216 Q 179.968 40.064 180.032 41.6 Q 178.944 42.24 177.76 42.528 A 8.714 8.714 0 0 1 176.822 42.698 Q 175.909 42.816 174.72 42.816 A 11.799 11.799 0 0 1 172.904 42.684 Q 171.925 42.531 171.109 42.202 A 6.614 6.614 0 0 1 170.624 41.984 Q 168.96 41.152 168.832 38.72 A 398.913 398.913 0 0 1 168.528 32.292 Q 168.402 29.047 168.352 26.176 Q 168.256 20.608 168.064 16.832 L 167.744 16.832 Q 167.136 19.204 166.008 22.731 A 196.619 196.619 0 0 1 165.888 23.104 Q 164.672 26.88 162.944 32.768 Q 162.15 33.44 160.918 33.85 A 8.865 8.865 0 0 1 160.8 33.888 Q 159.488 34.304 157.76 34.304 Q 155.456 34.304 153.952 33.728 A 3.602 3.602 0 0 1 152.941 33.153 A 2.935 2.935 0 0 1 152 31.744 Q 150.397 26.706 149.306 23.384 A 458.676 458.676 0 0 0 149.056 22.624 Q 147.904 19.136 147.264 16.512 Z M 57.472 37.696 L 57.472 23.488 A 8.253 8.253 0 0 0 57.38 22.205 Q 57.124 20.584 56.16 19.808 A 4.743 4.743 0 0 0 53.767 18.806 A 6.302 6.302 0 0 0 52.928 18.752 A 8.884 8.884 0 0 0 51.561 18.853 A 7.109 7.109 0 0 0 50.592 19.072 A 9.564 9.564 0 0 0 48.895 19.764 A 8.737 8.737 0 0 0 48.64 19.904 L 48.64 42.24 Q 48.091 42.39 47.171 42.54 A 34.243 34.243 0 0 1 46.624 42.624 Q 45.312 42.816 43.776 42.816 A 15.419 15.419 0 0 1 42.203 42.742 Q 40.603 42.577 39.621 42.048 A 3.597 3.597 0 0 1 39.168 41.76 Q 37.76 40.704 37.76 37.696 L 37.76 0.576 Q 38.31 0.426 39.229 0.276 A 34.24 34.24 0 0 1 39.776 0.192 Q 41.088 0 42.624 0 A 15.419 15.419 0 0 1 44.198 0.075 Q 45.798 0.239 46.78 0.768 A 3.597 3.597 0 0 1 47.232 1.056 Q 48.64 2.112 48.64 5.12 L 48.64 11.456 A 16.452 16.452 0 0 1 50.182 10.931 A 21.324 21.324 0 0 1 51.52 10.592 A 15.112 15.112 0 0 1 53.786 10.278 A 18.304 18.304 0 0 1 54.976 10.24 A 20.453 20.453 0 0 1 58.831 10.581 Q 62.467 11.28 64.832 13.408 A 10.043 10.043 0 0 1 67.726 18.109 Q 68.215 19.744 68.322 21.717 A 20.878 20.878 0 0 1 68.352 22.848 L 68.352 42.24 Q 67.803 42.39 66.883 42.54 A 34.243 34.243 0 0 1 66.336 42.624 Q 65.024 42.816 63.488 42.816 A 15.419 15.419 0 0 1 61.915 42.742 Q 60.315 42.577 59.333 42.048 A 3.597 3.597 0 0 1 58.88 41.76 Q 57.472 40.704 57.472 37.696 Z M 32.189 10.659 A 5.597 5.597 0 0 0 32.384 9.152 A 5.036 5.036 0 0 0 30.751 5.425 A 8.524 8.524 0 0 0 29.152 4.224 Q 25.92 2.304 20.032 2.304 A 25.32 25.32 0 0 0 19.257 2.316 A 22.17 22.17 0 0 0 12.224 3.648 Q 8.576 4.992 5.856 7.616 A 17.273 17.273 0 0 0 4.086 9.611 A 19.623 19.623 0 0 0 1.568 14.08 A 20.332 20.332 0 0 0 0.368 18.346 A 27.04 27.04 0 0 0 0 22.912 Q 0 25.611 0.403 27.93 A 20.03 20.03 0 0 0 1.6 32.16 A 20.012 20.012 0 0 0 2.373 33.816 A 16.406 16.406 0 0 0 6.016 38.528 A 17.708 17.708 0 0 0 6.372 38.835 A 18.308 18.308 0 0 0 12.608 42.24 A 24.2 24.2 0 0 0 15.025 42.881 A 27.568 27.568 0 0 0 20.736 43.456 A 31.956 31.956 0 0 0 22.031 43.431 Q 24.215 43.342 25.856 42.944 Q 27.308 42.592 28.307 42.24 A 11.119 11.119 0 0 0 29.12 41.92 A 9.259 9.259 0 0 0 29.782 41.593 Q 30.376 41.267 30.83 40.891 A 4.342 4.342 0 0 0 31.744 39.872 Q 32.512 38.656 32.512 37.184 A 7.87 7.87 0 0 0 32.412 35.901 A 5.889 5.889 0 0 0 31.904 34.272 Q 31.296 33.024 30.208 32.128 Q 28.544 33.024 26.72 33.728 Q 25.623 34.152 24.236 34.32 A 16.287 16.287 0 0 1 22.272 34.432 A 14.158 14.158 0 0 1 19.053 34.087 A 9.369 9.369 0 0 1 14.368 31.52 Q 11.52 28.608 11.52 22.912 Q 11.52 17.408 14.144 14.368 A 8.439 8.439 0 0 1 18.645 11.671 A 12.769 12.769 0 0 1 21.696 11.328 A 13.844 13.844 0 0 1 23.799 11.48 A 10.113 10.113 0 0 1 26.08 12.096 Q 27.968 12.864 29.632 13.952 Q 30.72 13.248 31.552 12.032 A 4.599 4.599 0 0 0 32.189 10.659 Z M 271.808 28.608 L 255.872 31.04 A 6.144 6.144 0 0 0 256.957 32.872 A 5.394 5.394 0 0 0 258.88 34.272 A 10.989 10.989 0 0 0 262.103 35.118 A 13.654 13.654 0 0 0 263.616 35.2 Q 266.304 35.2 268.736 34.528 A 22.335 22.335 0 0 0 270.36 34.016 Q 271.112 33.745 271.74 33.445 A 10.205 10.205 0 0 0 272.64 32.96 A 5.14 5.14 0 0 1 274.021 34.24 A 6.312 6.312 0 0 1 274.368 34.752 Q 275.072 35.904 275.072 37.184 Q 275.072 38.784 274.176 39.936 A 5.904 5.904 0 0 1 272.937 41.11 A 8.251 8.251 0 0 1 271.648 41.856 Q 270.016 42.624 267.776 42.976 Q 265.536 43.328 262.848 43.328 A 23.728 23.728 0 0 1 258.127 42.873 A 20.409 20.409 0 0 1 255.84 42.272 Q 252.608 41.216 250.24 39.104 A 14.166 14.166 0 0 1 247.021 34.86 A 16.896 16.896 0 0 1 246.528 33.792 A 16.589 16.589 0 0 1 245.48 30.085 Q 245.193 28.369 245.185 26.43 A 27.209 27.209 0 0 1 245.184 26.304 Q 245.184 22.08 246.56 19.04 Q 247.936 16 250.208 14.048 Q 252.48 12.096 255.36 11.168 Q 258.24 10.24 261.248 10.24 Q 264.64 10.24 267.424 11.264 A 15.638 15.638 0 0 1 270.748 12.939 A 13.697 13.697 0 0 1 272.224 14.08 Q 274.24 15.872 275.328 18.368 A 13.242 13.242 0 0 1 276.399 23.068 A 15.49 15.49 0 0 1 276.416 23.808 Q 276.416 25.504 275.677 26.578 A 3.495 3.495 0 0 1 275.2 27.136 Q 274.102 28.177 272.221 28.538 A 9.515 9.515 0 0 1 271.808 28.608 Z M 103.232 21.952 L 103.232 36.288 A 4.875 4.875 0 0 1 103.085 37.518 A 3.592 3.592 0 0 1 102.304 39.008 Q 101.376 40.064 100.096 40.832 A 15.096 15.096 0 0 1 96.414 42.377 Q 93.045 43.328 88.384 43.328 Q 84.992 43.328 82.272 42.688 Q 79.552 42.048 77.6 40.768 Q 75.648 39.488 74.592 37.504 A 8.91 8.91 0 0 1 73.661 34.624 A 11.57 11.57 0 0 1 73.536 32.896 A 11.884 11.884 0 0 1 73.832 30.16 Q 74.418 27.685 76.16 26.112 A 9.359 9.359 0 0 1 78.65 24.536 Q 79.863 23.996 81.379 23.643 A 23.843 23.843 0 0 1 84.288 23.168 L 92.672 22.272 L 92.672 21.824 Q 92.672 20.122 91.3 19.308 A 3.708 3.708 0 0 0 91.04 19.168 A 6.434 6.434 0 0 0 89.756 18.715 Q 88.457 18.393 86.618 18.37 A 22.834 22.834 0 0 0 86.336 18.368 Q 83.968 18.368 81.632 18.88 A 28.217 28.217 0 0 0 79.286 19.496 A 21.702 21.702 0 0 0 77.44 20.16 Q 76.608 19.584 76.032 18.4 Q 75.456 17.216 75.456 15.936 Q 75.456 14.576 75.991 13.665 A 3.154 3.154 0 0 1 76.256 13.28 A 4.591 4.591 0 0 1 77.103 12.481 Q 77.521 12.171 78.048 11.898 A 9.603 9.603 0 0 1 78.72 11.584 Q 80.422 10.939 82.689 10.616 A 27.073 27.073 0 0 1 83.104 10.56 Q 85.632 10.24 87.872 10.24 A 29.428 29.428 0 0 1 91.47 10.451 A 22.994 22.994 0 0 1 94.176 10.944 Q 97.024 11.648 99.04 13.088 Q 101.056 14.528 102.144 16.736 Q 103.232 18.944 103.232 21.952 Z M 214.464 21.952 L 214.464 36.288 A 4.875 4.875 0 0 1 214.317 37.518 A 3.592 3.592 0 0 1 213.536 39.008 Q 212.608 40.064 211.328 40.832 A 15.096 15.096 0 0 1 207.646 42.377 Q 204.277 43.328 199.616 43.328 Q 196.224 43.328 193.504 42.688 Q 190.784 42.048 188.832 40.768 Q 186.88 39.488 185.824 37.504 A 8.91 8.91 0 0 1 184.893 34.624 A 11.57 11.57 0 0 1 184.768 32.896 A 11.884 11.884 0 0 1 185.064 30.16 Q 185.65 27.685 187.392 26.112 A 9.359 9.359 0 0 1 189.882 24.536 Q 191.095 23.996 192.611 23.643 A 23.843 23.843 0 0 1 195.52 23.168 L 203.904 22.272 L 203.904 21.824 Q 203.904 20.122 202.532 19.308 A 3.708 3.708 0 0 0 202.272 19.168 A 6.434 6.434 0 0 0 200.988 18.715 Q 199.689 18.393 197.85 18.37 A 22.834 22.834 0 0 0 197.568 18.368 Q 195.2 18.368 192.864 18.88 A 28.217 28.217 0 0 0 190.518 19.496 A 21.702 21.702 0 0 0 188.672 20.16 Q 187.84 19.584 187.264 18.4 Q 186.688 17.216 186.688 15.936 Q 186.688 14.576 187.223 13.665 A 3.154 3.154 0 0 1 187.488 13.28 A 4.591 4.591 0 0 1 188.335 12.481 Q 188.753 12.171 189.28 11.898 A 9.603 9.603 0 0 1 189.952 11.584 Q 191.654 10.939 193.921 10.616 A 27.073 27.073 0 0 1 194.336 10.56 Q 196.864 10.24 199.104 10.24 A 29.428 29.428 0 0 1 202.702 10.451 A 22.994 22.994 0 0 1 205.408 10.944 Q 208.256 11.648 210.272 13.088 Q 212.288 14.528 213.376 16.736 Q 214.464 18.944 214.464 21.952 Z M 110.016 32.384 L 110.016 3.968 Q 110.72 3.776 112.032 3.552 A 15.885 15.885 0 0 1 114.046 3.344 A 18.533 18.533 0 0 1 114.816 3.328 A 14.338 14.338 0 0 1 116.402 3.409 Q 118.046 3.593 119.032 4.191 A 3.54 3.54 0 0 1 119.36 4.416 Q 120.768 5.504 120.768 8.448 L 120.768 11.904 L 129.152 11.904 A 8.131 8.131 0 0 1 129.459 12.534 Q 129.597 12.849 129.73 13.211 A 15.848 15.848 0 0 1 129.888 13.664 Q 130.24 14.72 130.24 16 A 7.985 7.985 0 0 1 130.163 17.154 Q 129.963 18.517 129.248 19.232 A 3.318 3.318 0 0 1 127.452 20.15 A 4.767 4.767 0 0 1 126.592 20.224 L 120.768 20.224 L 120.768 31.616 A 4.105 4.105 0 0 0 120.856 32.498 Q 121.074 33.484 121.824 33.984 Q 122.606 34.505 123.861 34.641 A 8.774 8.774 0 0 0 124.8 34.688 Q 125.76 34.688 126.784 34.528 Q 127.7 34.385 128.411 34.165 A 7.941 7.941 0 0 0 128.576 34.112 A 7.823 7.823 0 0 1 129.567 35.678 A 3.285 3.285 0 0 1 129.568 35.68 A 4.019 4.019 0 0 1 129.89 36.681 Q 129.984 37.181 129.984 37.76 A 5.261 5.261 0 0 1 129.57 39.875 A 5.028 5.028 0 0 1 128.16 41.728 A 5.087 5.087 0 0 1 126.666 42.57 Q 124.827 43.264 121.728 43.264 A 19.887 19.887 0 0 1 118.386 43.001 Q 116.601 42.697 115.175 42.038 A 9.353 9.353 0 0 1 113.056 40.704 Q 110.016 38.144 110.016 32.384 Z M 221.248 32.384 L 221.248 3.968 Q 221.952 3.776 223.264 3.552 A 15.885 15.885 0 0 1 225.278 3.344 A 18.533 18.533 0 0 1 226.048 3.328 A 14.338 14.338 0 0 1 227.634 3.409 Q 229.278 3.593 230.264 4.191 A 3.54 3.54 0 0 1 230.592 4.416 Q 232 5.504 232 8.448 L 232 11.904 L 240.384 11.904 A 8.131 8.131 0 0 1 240.691 12.534 Q 240.829 12.849 240.962 13.211 A 15.848 15.848 0 0 1 241.12 13.664 Q 241.472 14.72 241.472 16 A 7.985 7.985 0 0 1 241.395 17.154 Q 241.195 18.517 240.48 19.232 A 3.318 3.318 0 0 1 238.684 20.15 A 4.767 4.767 0 0 1 237.824 20.224 L 232 20.224 L 232 31.616 A 4.105 4.105 0 0 0 232.088 32.498 Q 232.306 33.484 233.056 33.984 Q 233.838 34.505 235.093 34.641 A 8.774 8.774 0 0 0 236.032 34.688 Q 236.992 34.688 238.016 34.528 Q 238.932 34.385 239.643 34.165 A 7.941 7.941 0 0 0 239.808 34.112 A 7.823 7.823 0 0 1 240.799 35.678 A 3.285 3.285 0 0 1 240.8 35.68 A 4.019 4.019 0 0 1 241.122 36.681 Q 241.216 37.181 241.216 37.76 A 5.261 5.261 0 0 1 240.802 39.875 A 5.028 5.028 0 0 1 239.392 41.728 A 5.087 5.087 0 0 1 237.898 42.57 Q 236.059 43.264 232.96 43.264 A 19.887 19.887 0 0 1 229.618 43.001 Q 227.833 42.697 226.407 42.038 A 9.353 9.353 0 0 1 224.288 40.704 Q 221.248 38.144 221.248 32.384 Z M 255.296 23.808 L 266.176 22.016 A 3.67 3.67 0 0 0 265.989 21.183 A 4.624 4.624 0 0 0 265.792 20.704 A 4.382 4.382 0 0 0 265.105 19.678 A 5.132 5.132 0 0 0 264.896 19.456 A 3.852 3.852 0 0 0 264.063 18.83 A 5.03 5.03 0 0 0 263.424 18.528 Q 262.528 18.176 261.312 18.176 A 6.617 6.617 0 0 0 259.275 18.478 A 5.519 5.519 0 0 0 257.248 19.648 A 5.685 5.685 0 0 0 255.696 22.033 A 8.3 8.3 0 0 0 255.296 23.808 Z M 92.736 34.56 L 92.736 29.44 L 88.128 29.824 Q 86.336 29.952 85.184 30.592 A 2.428 2.428 0 0 0 84.517 31.121 Q 84.078 31.63 84.037 32.359 A 2.72 2.72 0 0 0 84.032 32.512 A 2.672 2.672 0 0 0 84.265 33.639 Q 84.513 34.18 85.024 34.592 Q 85.899 35.297 87.843 35.381 A 12.627 12.627 0 0 0 88.384 35.392 Q 89.472 35.392 90.784 35.168 A 10.625 10.625 0 0 0 91.469 35.029 Q 92.141 34.868 92.573 34.65 A 2.598 2.598 0 0 0 92.736 34.56 Z M 203.968 34.56 L 203.968 29.44 L 199.36 29.824 Q 197.568 29.952 196.416 30.592 A 2.428 2.428 0 0 0 195.749 31.121 Q 195.31 31.63 195.269 32.359 A 2.72 2.72 0 0 0 195.264 32.512 A 2.672 2.672 0 0 0 195.497 33.639 Q 195.745 34.18 196.256 34.592 Q 197.131 35.297 199.075 35.381 A 12.627 12.627 0 0 0 199.616 35.392 Q 200.704 35.392 202.016 35.168 A 10.625 10.625 0 0 0 202.701 35.029 Q 203.373 34.868 203.805 34.65 A 2.598 2.598 0 0 0 203.968 34.56 Z" vector-effect="non-scaling-stroke"/></g></svg>